Coordinates
version=1
nRows=29
nColumns=24
inDegrees=yes

Units are S.I. units (second, meters, Newtons, ...)
Angles are in degrees.

endheader
time	pelvis_tilt	pelvis_list	pelvis_rotation	pelvis_tx	pelvis_ty	pelvis_tz	hip_flexion_r	hip_adduction_r	hip_rotation_r	knee_angle_r	ankle_angle_r	subtalar_angle_r	mtp_angle_r	hip_flexion_l	hip_adduction_l	hip_rotation_l	knee_angle_l	ankle_angle_l	subtalar_angle_l	mtp_angle_l	lumbar_extension	lumbar_bending	lumbar_rotation
      1.40800000	      2.14088725	      2.12075148	     -2.42195747	      0.32227098	      1.02076627	      0.25969797	      9.33121777	     -5.57099060	     -7.67670368	    -66.11927271	      3.52397955	    -16.23893972	      2.79304263	      7.96765441	      2.53024543	    -10.95286437	    -14.01610032	      3.90277485	     -9.04830359	     -9.34412932	    -13.14121869	     -5.48932665	      2.53160618
      1.41216667	      2.12336385	      2.01767865	     -2.25476668	      0.32725365	      1.02137879	      0.25905956	      9.96647886	     -5.40564730	     -7.77716413	    -66.11403703	      3.72991489	    -16.17401876	      2.75039844	      7.60172529	      2.48640182	    -10.81242094	    -13.86495362	      4.04235670	     -8.92392084	     -9.34320559	    -13.15875881	     -5.31459371	      2.36551029
      1.41633333	      2.09719532	      1.90845621	     -2.06588756	      0.33220147	      1.02196344	      0.25838618	     10.59646467	     -5.24329449	     -7.91120440	    -66.03942426	      3.89166470	    -16.11303800	      2.69267976	      7.24884380	      2.43900244	    -10.62959988	    -13.71445991	      4.18354593	     -8.80959486	     -9.34228347	    -13.17364936	     -5.14301247	      2.13259070
      1.42050000	      2.11365850	      1.83916213	     -1.94799563	      0.33720540	      1.02259195	      0.25784438	     11.18316387	     -5.11815882	     -7.98435744	    -65.91250211	      4.01466690	    -16.11489977	      2.67860383	      6.81374743	      2.43000086	    -10.52545315	    -13.49532169	      4.28109334	     -8.74932309	     -9.34082579	    -13.20683320	     -5.02845667	      2.06859983
      1.42466667	      2.10498664	      1.70527625	     -1.73218380	      0.34214461	      1.02318016	      0.25711408	     11.75614446	     -4.94856222	     -8.17022821	    -65.70010974	      4.17894763	    -16.02855752	      2.63722203	      6.44515770	      2.35446082	    -10.34722634	    -13.34467406	      4.39131037	     -8.63900485	     -9.33826660	    -13.25109528	     -4.77860652	      1.82063939
      1.42883333	      2.12729278	      1.59930911	     -1.51302226	      0.34712126	      1.02379706	      0.25635432	     12.27846248	     -4.82505053	     -8.37504330	    -65.42279724	      4.28177331	    -15.99659127	      2.58711698	      6.02068520	      2.31939349	    -10.12758418	    -13.14644880	      4.49064579	     -8.57446842	     -9.33630580	    -13.30850046	     -4.57973038	      1.54333783
      1.43300000	      2.15578993	      1.49612395	     -1.31303424	      0.35208656	      1.02441713	      0.25565794	     12.78316539	     -4.69904450	     -8.56047603	    -65.08001470	      4.36819832	    -15.95076984	      2.53793782	      5.58295234	      2.28309587	     -9.91560595	    -12.93423318	      4.57668234	     -8.54815534	     -9.33496668	    -13.38480356	     -4.40124451	      1.32567141
      1.43716667	      2.21656802	      1.39714897	     -1.09221068	      0.35704586	      1.02506000	      0.25490436	     13.23376907	     -4.59718945	     -8.78510440	    -64.67778084	      4.43668248	    -15.91956787	      2.47768041	      5.10619302	      2.25561205	     -9.68058198	    -12.70717341	      4.67181009	     -8.52658664	     -9.33433228	    -13.49171314	     -4.21811771	      1.06315692
      1.44133333	      2.28717441	      1.29623254	     -0.88767801	      0.36202979	      1.02569925	      0.25417250	     13.65776868	     -4.49572308	     -9.00376557	    -64.21409100	      4.50584536	    -15.88900164	      2.41892103	      4.61230470	      2.22167642	     -9.47810457	    -12.46869563	      4.74335109	     -8.51532586	     -9.33438924	    -13.60301215	     -4.01621736	      0.84292420
      1.44550000	      2.29554475	      1.21045137	     -0.76021639	      0.36700860	      1.02620044	      0.25366919	     14.16344749	     -4.37629009	     -9.12880923	    -63.72436199	      4.59343551	    -15.85440515	      2.39845482	      4.17788852	      2.18323034	     -9.37223702	    -12.21729125	      4.76313724	     -8.48412601	     -9.33482770	    -13.63923669	     -3.85934233	      0.74418583
      1.44966667	      2.43085094	      1.08707338	     -0.48776737	      0.37199914	      1.02692734	      0.25281879	     14.45333418	     -4.28081815	     -9.44207428	    -63.10524053	      4.62053052	    -15.83214383	      2.34674223	      3.61505075	      2.12979468	     -9.08696032	    -11.97545367	      4.87392460	     -8.47980405	     -9.33464386	    -13.83016009	     -3.62562144	      0.42337866
      1.45383333	      2.44192393	      1.00870528	     -0.37032546	      0.37701569	      1.02738403	      0.25235523	     14.92084859	     -4.17438095	     -9.56944355	    -62.50160018	      4.69594671	    -15.78007705	      2.33030832	      3.16737631	      2.09509782	     -9.00071700	    -11.70209353	      4.86471565	     -8.47703167	     -9.33608594	    -13.85563425	     -3.48278792	      0.33103222
      1.45800000	      2.63845962	      0.87789388	     -0.08495821	      0.38197236	      1.02816686	      0.25147694	     15.10393974	     -4.08406912	     -9.91014274	    -61.75766763	      4.70277470	    -15.75802124	      2.28251285	      2.53119971	      2.03240623	     -8.67185134	    -11.43445963	      4.96442111	     -8.51227419	     -9.33751125	    -14.13064202	     -3.22456216	      0.01081238
      1.46216667	      2.72049754	      0.78436065	      0.11604230	      0.38699812	      1.02871575	      0.25080860	     15.42410234	     -4.00564212	    -10.15366615	    -61.00419391	      4.74196060	    -15.70190367	      2.24030129	      2.00877338	      1.99316835	     -8.46815032	    -11.15701543	      4.99631003	     -8.57935102	     -9.34227233	    -14.24063734	     -3.03252872	     -0.21075232
      1.46633333	      2.85563508	      0.68801878	      0.31714389	      0.39199128	      1.02931761	      0.25015902	     15.66732290	     -3.92459445	    -10.40267633	    -60.19030443	      4.77130144	    -15.64702781	      2.19908222	      1.42511078	      1.94627790	     -8.25636067	    -10.86480899	      5.02373367	     -8.62514391	     -9.34763360	    -14.42290405	     -2.84094175	     -0.41441402
      1.47050000	      2.95475121	      0.58950330	      0.52172946	      0.39700083	      1.02984002	      0.24952697	     15.93024418	     -3.84097780	    -10.65671940	    -59.32377314	      4.78741946	    -15.60060974	      2.15902585	      0.88514382	      1.89122721	     -8.05001946	    -10.58464399	      5.06318573	     -8.66105654	     -9.35347544	    -14.55839897	     -2.64459438	     -0.61609272
      1.47466667	      3.05569250	      0.49847698	      0.71956392	      0.40201007	      1.03033742	      0.24891418	     16.17400585	     -3.76554960	    -10.90447677	    -58.40636291	      4.80290411	    -15.53654135	      2.11877007	      0.33930543	      1.84093887	     -7.83932653	    -10.29442444	      5.08968387	     -8.71809198	     -9.36120197	    -14.69798301	     -2.45657386	     -0.81081195
      1.47883333	      3.15886632	      0.41746697	      0.91420479	      0.40702051	      1.03080142	      0.24832303	     16.39796095	     -3.70237011	    -11.15486430	    -57.44198241	      4.81575635	    -15.46749965	      2.07806602	     -0.20968035	      1.79719844	     -7.63617173	    -10.00352830	      5.11938434	     -8.77321514	     -9.37021749	    -14.83853669	     -2.28087864	     -1.00534469
      1.48300000	      3.26498323	      0.33806123	      1.10425638	      0.41203982	      1.03123777	      0.24775436	     16.59886066	     -3.63976711	    -11.40419054	    -56.42556167	      4.81868009	    -15.39365383	      2.03792119	     -0.76374607	      1.74991739	     -7.44216995	     -9.70974778	      5.14763182	     -8.82965168	     -9.38086350	    -14.97963026	     -2.10411400	     -1.18100900
      1.48716667	      3.24715238	      0.30127785	      1.18963272	      0.41705356	      1.03139948	      0.24748054	     16.96138262	     -3.57804429	    -11.51580692	    -55.41733281	      4.83399535	    -15.28333127	      2.02354698	     -1.18432923	      1.73522736	     -7.37986977	     -9.42498288	      5.13851969	     -8.84156403	     -9.38572510	    -14.96959223	     -2.02767870	     -1.25523779
      1.49133333	      3.45785621	      0.21179470	      1.46463196	      0.42205555	      1.03197898	      0.24670390	     16.97218451	     -3.54365562	    -11.88229840	    -54.25365069	      4.79388793	    -15.21561743	      1.97154395	     -1.85143523	      1.67676238	     -7.07104098	     -9.11949543	      5.19211232	     -8.91909931	     -9.40121464	    -15.24206501	     -1.80299671	     -1.53152712
      1.49550000	      3.40556154	      0.18608988	      1.53639300	      0.42707997	      1.03201385	      0.24648410	     17.33717052	     -3.48797245	    -11.97830212	    -53.15706892	      4.81982682	    -15.10876148	      1.95854595	     -2.23278819	      1.66925600	     -7.02036268	     -8.84738246	      5.21452825	     -8.94916536	     -9.40670771	    -15.19196995	     -1.73665958	     -1.58404488
      1.49966667	      3.59424292	      0.09775275	      1.79567647	      0.43207735	      1.03248562	      0.24579091	     17.33519914	     -3.44133699	    -12.32722673	    -51.89664466	      4.77978702	    -15.05828825	      1.91401263	     -2.87057385	      1.59758162	     -6.73818426	     -8.55807908	      5.29145677	     -9.01360677	     -9.42361874	    -15.43512680	     -1.51874571	     -1.78695026
      1.50383333	      3.64458746	      0.07487340	      1.95598661	      0.43709482	      1.03265539	      0.24533125	     17.51153355	     -3.43512198	    -12.55127832	    -50.66243226	      4.75880620	    -14.92547403	      1.86880577	     -3.36679054	      1.59418120	     -6.57299816	     -8.26503969	      5.30708689	     -9.07971871	     -9.44812138	    -15.51102967	     -1.41255500	     -1.97890879
      1.50800000	      3.56504194	      0.08218615	      2.01376793	      0.44211643	      1.03253632	      0.24517376	     17.85222610	     -3.41160453	    -12.63445564	    -49.43570502	      4.76946458	    -14.80546663	      1.85615781	     -3.71780404	      1.61543897	     -6.53988084	     -8.00003267	      5.33577392	     -9.09519762	     -9.45585198	    -15.42931265	     -1.38651291	     -2.01723419
      1.51216667	      3.66549310	      0.02354887	      2.22993765	      0.44714733	      1.03275111	      0.24460730	     17.90154328	     -3.38193221	    -12.94298149	    -48.06033158	      4.72540946	    -14.75157390	      1.81625898	     -4.26101434	      1.56307915	     -6.33039945	     -7.72181854	      5.42111729	     -9.13375773	     -9.47975914	    -15.56602660	     -1.21500789	     -2.17029355
      1.51633333	      3.67225014	      0.02266612	      2.35975502	      0.45215328	      1.03274003	      0.24428098	     18.07375234	     -3.37621206	    -13.12166130	    -46.69718895	      4.71370852	    -14.61975868	      1.77844518	     -4.70709979	      1.57165963	     -6.19257155	     -7.44411590	      5.45786070	     -9.17248451	     -9.50907614	    -15.59940717	     -1.14868782	     -2.32488711
      1.52050000	      3.56285960	      0.07324155	      2.39519352	      0.45716904	      1.03245462	      0.24418372	     18.39706903	     -3.39490851	    -13.18691990	    -45.35525083	      4.70383103	    -14.47950592	      1.76765576	     -5.02911522	      1.63709516	     -6.18662285	     -7.18072220	      5.48930386	     -9.17482000	     -9.51823325	    -15.49305076	     -1.17806851	     -2.36170745
      1.52466667	      3.61766008	      0.05207012	      2.57068922	      0.46219917	      1.03247339	      0.24375778	     18.44941800	     -3.38167706	    -13.44477220	    -43.86542919	      4.66700499	    -14.41568696	      1.73172362	     -5.52112720	      1.61524434	     -6.03505712	     -6.91742902	      5.58075531	     -9.19072131	     -9.54993056	    -15.56585488	     -1.05984974	     -2.47992955
